<?xml version="1.0" encoding="UTF-8"?>
<!-- Created with Inkscape (http://www.inkscape.org/) -->
<svg width="1089.9" height="786.01" version="1.1" viewBox="0 0 1089.9 786.01" xmlns="http://www.w3.org/2000/svg">
 <g transform="translate(-239.91 -77.924)">
  <path d="m621 863.75c-0.275-0.26692-6.35-0.75207-13.5-1.0781-45.551-2.0772-104.06-15.149-144-32.172-57.02-24.303-94.904-55.111-116.21-94.501-13.262-24.525-22.633-58.703-23.441-85.5l-0.2111-7 11.428-0.67456c6.5303-0.38546 15.311-1.6748 20.488-3.0082l9.0596-2.3336 1.2452 14.508c4.3365 50.525 25.235 91.728 62.136 122.5 16.901 14.095 47.662 31.673 71.5 40.857 20.743 7.992 56.901 17.37 81.5 21.138 32.901 5.0394 82.232 6.9998 113.5 4.5105 61.592-4.9035 122.66-21.015 188-49.6 21.414-9.3682 46.546-22.395 74-38.355 25.971-15.099 72.761-48.725 102.73-73.827 8.8055-7.3759 15.657-12.805 15.226-12.064-0.431 0.74063-3.8617 5.0045-7.624 9.4753-16.466 19.566-53.898 52.041-85.33 74.029-20.176 14.113-23.674 16.452-34.728 23.213-22.827 13.962-53.711 30.58-71.272 38.351-3.3 1.4603-8.925 3.9724-12.5 5.5826-20.782 9.3599-56.088 21.587-81.5 28.225-46.726 12.206-80.481 16.847-128.5 17.669-17.325 0.2965-31.725 0.32071-32 0.0538zm-48.66-77.708c-16.838-4.0121-19.532-22.593-5.1491-35.524 9.4087-8.4592 21.888-12.479 38.811-12.503l10.502-0.01478 4.3593-12.25c9.5257-26.768 11.255-32.071 17.569-53.883 14.327-49.494 25.254-77.045 36.685-92.499 17.383-23.501 37.519-35.173 58.947-34.17 7.2404 0.33871 9.406 0.87018 14 3.4357 16.071 8.9747 17.959 30.536 4.9373 56.371-11.029 21.88-35.102 47.931-52.387 56.69-5.4825 2.7782-8.8749 2.2136-10.112-1.6829-0.94202-2.968 1.3373-6.0022 9.2545-12.319 29.449-23.497 48.127-61.979 36.684-75.579-6.603-7.8473-18.425-3.1642-25.887 10.255-7.5728 13.618-17.943 41.637-34.468 93.131-8.3794 26.111-16.641 43.428-28.229 59.173l-3.8075 5.1731 6.5878 0.70549c10.313 1.1044 36.967-0.14684 43.807-2.0564 16.52-4.6116 30.061-16.06 37.316-31.548 3.4387-7.3412 6.2995-8.9776 9.7183-5.5588 3.0652 3.0652 3.9246 7.8504 3.2292 17.98-0.91184 13.283-6.5774 26-16.543 37.131-18.699 20.888-47.212 24.324-92.511 11.149l-11.449-3.3297-6.8535 5.879c-8.1632 7.0025-20.498 13.301-29.982 15.311-7.4811 1.585-10.21 1.6818-15.031 0.53298zm19.16-16.951c2.75-1.5896 6.35-4.3425 8-6.1177l3-3.2275-8.5631 0.50473c-9.4819 0.5589-14.396 2.4689-16.127 6.2679-2.6808 5.8838 5.3509 7.393 13.69 2.5726zm-106.04 4.7834c-7.958-4.5533-22.543-15.102-26.889-19.448-0.87309-0.8731-1.3349-1.996-1.0263-2.4954 0.30862-0.49935-0.0697-0.66585-0.84069-0.36999-1.6094 0.61758-12.912-12.381-19.617-22.561-9.3874-14.252-17.978-35.193-21.568-52.573-3.3011-15.982-3.9284-34.189-1.9098-55.427l0.80793-8.5 0.7469 7c0.4108 3.85 1.2316 12.175 1.824 18.5 3.2318 34.505 14.629 67.36 32.721 94.327 7.3846 11.007 28.389 33.5 38.076 40.775 10.223 7.6774 9.9185 7.7787-2.3255 0.7731zm284.68-30.184c-19.457-7.3874-21.012-38.808-3.672-74.191 7.5844-15.476 14.584-25.645 24.485-35.575 18.424-18.478 38.977-22.738 51.69-10.716l3.1391 2.9687 2.8609-5.3367c3.4336-6.405 6.6248-7.8402 19.108-8.5934 12.681-0.7652 13.657 1.2822 7.8564 16.483-7.0622 18.506-18.711 59.063-20.21 70.366-0.48709 3.6719-0.24035 5.4878 1.0037 7.3864 4.6306 7.0672 18.478-2.0128 30.706-20.135 4.7712-7.0707 5.493-9.0127 11.04-29.706 3.2642-12.178 8.6196-32.115 11.901-44.305 6.9989-26.002 11.956-47.351 11.956-51.491 0-3.0469-4.0507-7.845-6.623-7.845-0.73201 0-2.0695-1.1272-2.9723-2.505-2.091-3.1913-0.76521-5.0172 4.3384-5.9746 2.0196-0.37887 9.7121-2.6966 17.095-5.1506 10.732-3.5673 14.545-4.4024 19.023-4.1658 5.1308 0.27121 5.6829 0.53255 6.5884 3.1185 0.75509 2.1565 0.46788 4.7521-1.2172 11-2.3958 8.883-16.584 64.327-17.69 69.126-0.60818 2.6399 0.17467 2.1326 7.4797-4.8466 10.597-10.125 16.699-13.086 26.979-13.095 6.4026-6e-3 8.1901 0.39908 12.216 2.7657 9.2856 5.4584 13.889 15.6 13.948 30.728 0.1618 41.647-28.397 82.939-64.716 93.57-6.8452 2.0038-18.005 2.242-24.239 0.51738-11.751-3.2503-20.506-13.198-21.419-24.338-0.12399-1.5125-0.46479-2.7336-0.75733-2.7135-0.29254 0.0201-1.7411 1.9326-3.2191 4.25-7.1114 11.15-20.268 23.818-29.376 28.283-7.2251 3.5422-16.319 5.0819-21.264 3.6004-7.5014-2.2474-11.471-7.0478-13.637-16.491l-1.1059-4.8206-3.8462 5.5844c-5.495 7.9784-15.005 16.391-22.487 19.892-7.4355 3.4795-19.099 4.5801-24.959 2.3551zm34.63-27.438c8.6789-3.977 19.107-21.692 25.754-43.753 6.913-22.942 6.9252-35.162 0.0381-38.04-6.026-2.5178-13.233 0.95481-20.087 9.6782-12.06 15.35-22.434 42.89-22.634 60.086-0.1 8.5862 1.0625 11.401 5.4903 13.293 3.3844 1.4463 6.2013 1.1348 11.438-1.265zm133.29-8.794c4.7249-3.2743 11.984-12.62 16.034-20.644 1.5821-3.1341 4.9023-11.612 7.3782-18.841 8.2494-24.084 9.521-37.003 4.1011-41.665-3.2197-2.7694-5.7427-2.8691-11.094-0.43815-12.632 5.7382-25.408 31.796-30.612 62.437-2.0628 12.146-1.9449 18.689 0.38739 21.499 1.788 2.1544 9.1033 0.91032 13.805-2.3477zm-415.38-14.709c-0.86059-12.869-2.792-18.712-7.6292-23.082-3.8258-3.4563-11.61-6.5579-16.985-6.768-1.4127-0.0552 0.2377-0.71541 3.6675-1.4671 9.8117-2.1503 14.151-5.1083 17.504-11.932 1.9568-3.9822 2.6328-7.8432 3.3913-19.369 0.6948-10.558 1.3645-13.259 1.3756-5.5473 0.0108 7.5165 2.5252 22.612 4.3562 26.152 3.0635 5.9242 7.6832 8.3416 22.137 11.584 1.1494 0.25783 0.51145 0.50257-1.5 0.57545-5.6457 0.20458-13.202 2.926-16.301 5.8711-5.4635 5.1914-7.5361 12.035-7.8018 25.761-0.0796 4.1104-0.47108 7.4734-0.87001 7.4734s-1.0037-4.1625-1.3439-9.25zm646.93-59.75c-0.9155-11.984-2.9454-22.829-5.0141-26.789-1.773-3.3941-6.1733-7.5244-10.095-9.4754-3.4865-1.7346-12.182-3.7047-16.799-3.8061-2.6954-0.0592-2.885-0.20598-1.2008-0.92971 1.1-0.47269 3.3104-0.89106 4.9121-0.92971 5.1312-0.12385 13.579-3.3711 17.499-6.726 6.4112-5.4877 9.9364-16.86 10.181-32.844 0.1669-10.892 1.6891-13.689 1.8082-3.3224 0.1306 11.366 1.7808 22.913 4.022 28.141 0.9894 2.3082 3.6298 5.8507 5.8675 7.8724 4.2243 3.8164 7.2467 4.9817 18.21 7.0213 3.8705 0.72005 5.4886 1.3309 4 1.51-14.065 1.6922-21.507 4.9436-25.369 11.083-4.1997 6.6763-5.2146 11.249-6.48 29.198l-0.7401 10.497zm-862.28-10.415c-42.764-8.1542-67.414-37.224-67.424-79.512-6e-3 -26.371 7.6852-46.749 23.279-61.676 10.872-10.408 21.348-15.109 35.848-16.088 10.155-0.6855 17.396 1.0468 23.817 5.6983 8.8552 6.4147 7.9332 11.075-2.5718 12.997-9.0723 1.6603-15.43 5.2452-21.814 12.3-11.201 12.377-17.356 29.266-18.206 49.956-0.59749 14.542 0.85897 22.831 5.8794 33.463 12.085 25.594 47.861 31.922 70.014 12.383 6.7556-5.9582 11.832-14.234 15.707-25.606 3.003-8.8127 3.4662-11.563 3.9019-23.164 1.2072-32.148-4.3615-46.966-41.057-109.25-13.362-22.679-17.709-32.047-21.389-46.085-3.4399-13.124-3.626-30.059-0.45472-41.384 5.125-18.303 11.412-28.96 24.155-40.948 20.252-19.052 52.349-25.568 79.858-16.211 18.874 6.4196 31.201 21.445 32.921 40.128 2.0626 22.414-5.5023 38.63-21.503 46.094-6.2099 2.8968-17.361 4.1126-22.416 2.444-3.1681-1.0456-6.874-5.3475-6.874-7.9797 0-0.57622 2.0896-2.4854 4.6436-4.2426 11.74-8.077 17.273-16.921 18.095-28.922 0.72894-10.635-1.3994-16.776-8.1417-23.492-14.593-14.536-39.828-9.5611-52.451 10.34-7.0703 11.146-9.0277 27.43-5.1404 42.763 3.5258 13.907 10.067 26.126 34.65 64.731 27.521 43.219 34.568 62.295 34.602 93.679 0.0172 15.637-1.2786 23.698-5.6946 35.431-12.107 32.165-37.283 53.862-71.047 61.226-9.7918 2.1357-32.205 2.641-41.185 0.92861zm725.94-61.125c-5.7117-1.5383-11.543-4.8878-14.955-8.5904-3.6225-3.9307-7.2978-12.947-7.2845-17.87 0.02-7.409 5.8967-18 9.9876-18 2.2796 0 4.9807 3.1784 4.9807 5.8609 0 3.6318 2.6623 8.8718 5.4284 10.684 1.9299 1.2645 4.0119 1.5832 8.1186 1.2426 13.005-1.0785 20.274-11.479 28.967-41.441 2.4864-8.5706 5.7594-23.407 5.2715-23.895-0.1575-0.15743-2.8112 2.714-5.8971 6.3809-9.0368 10.738-21.472 16.577-31.399 14.742-7.7653-1.4348-16.489-13.126-16.489-22.098 0-2.4913-0.5229-2.0496-4.8731 4.116-10.917 15.473-24.954 25.404-35.909 25.406-11.57 2e-3 -17.184-5.7948-18.005-18.589l-0.48337-7.5319-2.4478 4.3094c-4.7729 8.4029-15.955 20.365-22.772 24.36-10.005 5.8632-23.676 6.7073-29.484 1.8203-4.3027-3.6205-5.3821-8.1276-4.7397-19.791 0.70906-12.875 3.7793-24.441 13.102-49.359 4.0576-10.845 7.3178-19.768 7.2449-19.829-0.0729-0.0611-3.3347-0.39618-7.2486-0.74454l-7.1161-0.63338-1.707 7.0234c-5.9649 24.542-26.737 70.314-33.569 73.97-3.1867 1.7055-5.9655 1.1481-7.1413-1.4325-0.92819-2.0372-0.61227-3.4464 1.9615-8.75 1.6873-3.477 3.7521-7.4467 4.5884-8.8217 2.9606-4.8677 10.357-21.549 11.084-25 0.40581-1.925 1.3637-4.2115 2.1287-5.0811 1.4037-1.5957 4.0673-8.5721 9.8705-25.852l3.168-9.4333-3.2649-2.8666c-4.2994-3.7749-5.798-8.5603-5.018-16.023 1.5014-14.365 13.083-24.961 23.086-21.122 4.1019 1.574 5.7431 10.647 3.363 18.591-0.97699 3.2609-0.93366 4.1112 0.25 4.9056 2.1983 1.4754 10.428 0.17693 21.107-3.3304 10.891-3.577 13.954-3.2017 15.919 1.9498 1.8706 4.9057 0.69907 9.414-11.018 42.4-9.9567 28.031-11.587 42.862-4.7118 42.862 3.2635 0 10.902-5.3425 15.474-10.823 9.229-11.062 12.897-18.225 17.052-33.294 6.0788-22.047 10.842-41.796 11.552-47.892 0.35266-3.0297 0.97418-6.0474 1.3811-6.7059 1.0215-1.6528 10.837-4.0808 19.77-4.8903 6.3601-0.57634 7.7284-0.41367 9.4233 1.1202 1.0906 0.98696 1.9769 2.5122 1.9696 3.3895-0.01 0.87725-4.0896 17.795-9.0718 37.595-11.455 45.521-12.529 56.5-5.5298 56.5 3.4936 0 10.106-5.3036 15.142-12.144 4.8468-6.5839 5.041-7.1272 5.9778-16.728 0.8661-8.8752 4.6759-23.323 9.0526-34.329 11.032-27.744 31.94-46.185 52.442-46.255 7.535-0.0258 12.234 2.1925 14.079 6.6462 0.6401 1.5452 1.4466 2.8044 1.7924 2.7983 0.3458-6e-3 1.5287-2.3307 2.6287-5.1658 1.1-2.8351 3.1362-5.9923 4.5249-7.0161 3.5313-2.6034 18.463-5.6173 20.745-4.1873 2.8279 1.7721 2.6297 8.3375-0.5919 19.611-4.2486 14.867-8.4761 34.684-13.711 64.27-2.5301 14.3-5.7118 30.725-7.0704 36.5-3.9129 16.633-12.201 42.741-16.463 51.859-9.1222 19.518-22.293 31.74-37.734 35.016-6.7409 1.4303-10.411 1.3402-16.93-0.41552zm33.84-101.35c11.291-12.119 22.856-46.074 22.858-67.112 0-9.9352-1.2454-13.074-5.699-14.351-9.3395-2.6786-20.602 10.863-26.268 31.583-5.8549 21.412-8.5309 44.523-5.958 51.454 2.4804 6.6815 7.9032 6.1152 15.066-1.5734zm-604.74 94.801c-3.7352-1.0828-8.5947-5.8238-11.075-10.805-1.4389-2.8896-1.7866-5.9958-1.7472-15.608 0.0534-13.028-0.55109-10.106 12.618-61 3.2732-12.65 6.18-23.788 6.4595-24.75 0.45091-1.5526-0.31698-1.7517-6.8092-1.7647-9.2398-0.0186-12.435-1.4932-12.004-5.5405 0.51455-4.8404 2.4133-5.8521 13.246-7.0585 5.5008-0.61258 10.18-1.2927 10.399-1.5113 0.21864-0.21863 2.6677-10.007 5.4423-21.751 2.7746-11.744 5.5622-21.977 6.1945-22.739 0.63232-0.7619 1.9878-1.3853 3.0121-1.3853 1.0244 0 5.8068-1.1443 10.628-2.5429 9.1082-2.6424 12.61-2.6062 13.664 0.14122 0.34098 0.88859-1.263 10.789-3.5643 22.001-2.3014 11.212-3.8766 20.693-3.5005 21.069 0.37608 0.37608 7.2057-0.39072 15.177-1.704 17.761-2.9262 18.064-2.8009 16.378 6.7719-0.59922 3.4018-1.607 6.5973-2.2396 7.101-0.63257 0.50376-8.3348 1.4437-17.116 2.0888-8.7812 0.64506-16.087 1.2936-16.234 1.4412-0.63254 0.63254-17.293 68.697-18.175 74.255-1.781 11.215 1.3366 17.379 8.7903 17.379 6.7304 0 17.009-8.3188 27.499-22.257 4.7108-6.2589 6.0787-9.0459 8.0456-16.392 3.2093-11.987 5.7258-18.101 12.19-29.619 16.166-28.804 40.472-47.285 61.863-47.038 8.6049 0.0994 13.376 1.9824 16.974 6.6996 1.5128 1.9834 3.1631 3.6061 3.6674 3.6061 0.50426 0 1.7556-1.9568 2.7808-4.3483 1.0252-2.3916 3.0288-5.2646 4.4525-6.3845 3.0275-2.3814 13.255-4.5138 22.363-4.6625 5.3088-0.0867 6.659 0.23562 7.8586 1.8759 1.8739 2.5622 1.316 4.9451-4.6653 19.926-8.8895 22.264-18.972 58.863-19.264 69.924-0.15268 5.7936 0.12341 7.0546 1.82 8.3121 2.707 2.0064 7.215 1.0006 10.8-2.4096 4.1465-3.9444 23.7-34.935 23.7-37.562 0-0.32593 2.9504-6.7727 6.5565-14.326s7.4572-17.017 8.5581-21.029l2.0016-7.2958-2.5027-3.2812c-8.8808-11.643-3.3065-32.227 10.605-39.159 7.1845-3.5802 12.08-3.4341 15.991 0.47717 2.8993 2.8993 3.0159 3.3217 2.2772 8.25-0.4282 2.8568-0.8254 7.1976-0.88269 9.6462-0.10054 4.2975 0.0153 4.4766 3.3385 5.1631 1.8934 0.39116 9.2014 0.0206 16.24-0.82354 11.848-1.4209 12.987-1.4106 15.352 0.1392 7.2639 4.7595 5.408 16.895-6.5103 42.569-6.8207 14.693-10.437 25.151-12.727 36.805-1.4824 7.5448-1.5004 8.7378-0.16649 11.075 4.4515 7.8002 20.117-2.9771 33.751-23.219 6.5002-9.6508 7.685-12.146 9.0979-19.161 0.66466-3.3 4.9626-21.3 9.5509-40 19.7-80.288 19.734-80.443 18.364-84.369-0.5132-1.4708-2.5665-3.5138-4.6565-4.6329-2.7634-1.4798-3.7385-2.644-3.7385-4.4636 0-2.1299 0.94327-2.817 7-5.0987 3.85-1.4504 11.685-4.9543 17.411-7.7864 6.2516-3.092 11.745-5.1494 13.75-5.1494 3.781 0 7.3386 2.9078 7.3386 5.9981 0 1.099-2.6486 12.236-5.8859 24.75-3.2372 12.514-8.2087 31.752-11.048 42.752s-5.4294 20.9-5.7563 22c-0.43153 1.452 0.60905 0.89712 3.7978-2.0252 10.774-9.8741 22.522-13.36 34.695-10.294 7.1022 1.7884 14.19 9.3257 17.255 18.349 4.2111 12.398 2.954 33.399-3.0943 51.695-5.6128 16.979-18.263 37.583-28.745 46.817-6.8264 6.014-19.541 13.569-27.03 16.061-9.2984 3.0943-21.948 2.3547-30.011-1.7547-8.4091-4.286-13.982-13.507-14.51-24.008-0.0922-1.8329-0.39255-3.3068-0.66755-3.2753-0.275 0.0314-2.75 3.2046-5.5 7.0514-7.3454 10.275-22.076 24.06-29.693 27.786-22.74 11.125-38.656 1.5222-36.305-21.904 1.4698-14.649 6.4998-30.362 18.327-57.25l6.048-13.75-7.4381-0.17857c-4.091-0.0982-8.3477-0.21072-9.4595-0.25-1.67-0.059-2.6023 1.5803-5.3627 9.4286-9.9557 28.306-29.347 63.527-43.73 79.427-11.398 12.601-24.314 19.216-35.883 18.379-9.1595-0.66254-15.598-6.9351-17.765-17.306l-0.7376-3.5309-4.5 5.6766c-5.2511 6.6241-14.967 14.93-21.842 18.672-21.367 11.629-43.578 2.4906-47.693-19.623l-0.70817-3.8058-3.5453 5.3058c-8.4139 12.592-26.015 27.185-36.569 30.319-5.4677 1.6237-17.314 1.8361-22.271 0.39919zm116.26-36.084c4.8077-2.4011 10.814-8.9992 15.939-17.51 9.9118-16.46 18.023-50.942 14.497-61.626-2.285-6.9236-8.86-9.4769-16.346-6.3477-7.5248 3.1456-21.384 22.559-27.272 38.202-6.0689 16.124-8.3752 35.821-4.9659 42.414 3.6282 7.0163 10.276 8.7992 18.148 4.8675zm234.99-21.078c6.314-4.9236 13.058-14.863 16.795-24.75 5.7904-15.323 9.7927-35.11 9.9116-49 0.1056-12.343-1.6152-15.952-7.621-15.985-11.019-0.0603-23.6 18.835-30.135 45.258-5.7753 23.35-6.5099 39.815-1.9987 44.8 2.503 2.7658 9.304 2.5976 13.049-0.32272zm-376.52-22.636c-1.3149-3.0877-5.6475-11.993-9.628-19.79l-7.2373-14.176 5.8156-9.5612c7.7488-12.739 25.08-37.7 35.456-51.062 36.384-46.859 79.163-86.341 127.69-117.85 12.055-7.8269 34.618-21.68 35.311-21.68 0.22592 0 2.7931-1.4173 5.7048-3.1495 16.267-9.6775 49.83-25.084 74.778-34.325 38.429-14.235 67.849-21.56 106.55-26.529 13.462-1.7285 30.739-2.6309 24.966-1.304-1.1 0.25284-9.2 2.4224-18 4.8214-70.207 19.138-151.8 59.838-209.91 104.71-32.03 24.73-62.573 53.879-83.218 79.42-5.5734 6.8951-5.8501 7.0896-8.0452 5.6513-1.8242-1.1953-4.8955-1.3987-15.548-1.0296-14.724 0.51007-20.069 1.7312-22.268 5.0875-1.9645 2.9982-9.1295 27.415-10.655 36.309l-1.213 7.0736-8.0694 1.0184c-4.4382 0.5601-9.2885 1.5021-10.778 2.0933-6.0528 2.4017-8.806 14.847-5.4696 24.725 0.69539 2.0588 6.4153 5.4304 9.2127 5.4304 0.80634 0 1.4661 0.20271 1.4661 0.45046s-3.2653 6.9366-7.2563 14.864l-7.2563 14.414zm-4.0968-37.114c0-0.55-0.47656-1-1.059-1s-0.7809 0.45-0.44098 1 0.81648 1 1.059 1 0.44098-0.45 0.44098-1zm691.2 40.8c-1.5815-1.5815-1.5136-3.9112 0.2954-10.146 0.8224-2.8346 4.8923-20.229 9.0442-38.654 20.362-90.363 27.443-122.77 27.452-125.62 0.012-4.0316-3.113-7.94-7.5067-9.39-2.6434-0.87239-3.4844-1.7082-3.4844-3.4628 0-2.0515 0.9325-2.563 8.25-4.5258 4.5375-1.2171 12.178-3.7414 16.978-5.6096 10.417-4.0537 15.948-4.4102 18.215-1.1741 1.9526 2.7877 1.96 5.9143 0.034 14.22-5.1239 22.094-17.588 82.723-17.229 83.802 0.1665 0.49944 1.8457-1.2639 3.7315-3.9185 8.4637-11.914 22.111-23.683 31.168-26.879 2.2572-0.79639 6.3424-1.448 9.0782-1.448 4.2973 0 5.4248 0.45054 8.2847 3.3104 1.8808 1.8808 3.833 5.2277 4.5206 7.75 1.6646 6.1065 0.5845 19.938-2.5722 32.94-7.7906 32.087-9.7723 41.932-9.8628 49l-0.096 7.5 2.8094 0.32215c2.3414 0.2685 3.9348-0.82347 9.5654-6.5556 6.6879-6.8084 15.503-20.039 18.5-27.767 0.8532-2.2 2.9044-9.85 4.5584-17 1.6539-7.15 4.7573-20.357 6.8964-29.349l3.8893-16.349-17.144 0.69789-0.9802-2.75c-0.6323-1.774-0.6384-3.726-0.017-5.5 0.9129-2.6066 1.451-2.8106 10.318-3.9112 5.1455-0.63864 9.945-1.7636 10.666-2.5 1.4885-1.521 7.4236-32.57 7.4683-39.07l0.029-4.2691 13.131-7.4468c13.592-7.7084 17.774-9.1582 20.319-7.0456 2.0682 1.7165 1.89 8.4585-0.4265 16.137-2.5323 8.3935-7.4982 34.773-6.6969 35.575 0.3459 0.34589 6.0815-0.38353 12.746-1.6209 8.4065-1.5609 12.436-1.9306 13.159-1.2074 0.7232 0.72321 0.6591 2.7552-0.2094 6.6361-1.5019 6.7112-1.5333 6.7278-17.081 9.0277-6.325 0.93561-12.004 2.2061-12.619 2.8233-1.686 1.6906-16.766 64.539-17.995 74.999-1.7736 15.091 4.554 20.367 16.327 13.615 5.0454-2.8936 13.819-12.252 16.688-17.8 5.1855-10.028 12.31-6.1088 7.7277 4.2506-5.612 12.687-23.633 33.427-33.703 38.789-16.069 8.5563-30.094 6.4089-35.794-5.4806-1.3849-2.8882-2.8203-7.3949-3.1898-10.015l-0.6719-4.7635-2.9497 4.6511c-10.384 16.374-25.608 27.149-39.725 28.118-5.7181 0.39224-7.0475 0.14053-10.007-1.8947-5.7478-3.9526-7.4925-8.6889-7.4764-20.297 0.015-11.146 2.1947-23.267 7.9197-44.05 6.998-25.405 7.2769-28.533 2.6515-29.742-5.5467-1.4505-14.363 7.4248-21.958 22.105-7.178 13.874-10.758 25.585-19.646 64.26-1.469 6.3924-3.2302 12.388-3.9138 13.322-0.8572 1.1722-4.1797 2.1408-10.704 3.1204-11.593 1.7407-17.184 1.8106-18.76 0.23462zm-595.2-69.487c0-1.4035 24.933-34.394 35.38-46.813 18.097-21.513 50.384-54.805 52.401-54.031 0.72759 0.2792 1.094 0.13734 0.81432-0.31525-0.75324-1.2188 6.152-7.5271 24.405-22.295 17.355-14.042 34.721-26.019 57-39.313 36.342-21.685 90.598-44.256 127.55-53.061 5.5277-1.3172 10.928-2.7064 12-3.0872 1.245-0.44216 1.5882-0.34954 0.94966 0.25627-0.55 0.52177-4.825 2.4736-9.5 4.3375-15.558 6.2028-48.306 22.348-66.501 32.787-34.745 19.933-58.807 36.517-95.45 65.786-13.385 10.691-41.423 36.925-54.058 50.579-20.727 22.399-40.507 46.103-48.314 57.903l-3.086 4.6635-13.045 0.65907c-7.1748 0.36249-14.733 1.0554-16.795 1.5399-2.0625 0.48445-3.75 0.66663-3.75 0.40485zm467.5-52.273c-2.8047-1.1678-7.1732-6.0122-8.4364-9.3556-1.9968-5.285-1.2788-11.946 1.9698-18.275 4.3572-8.4888 7.8237-10.91 15.621-10.91 5.7584 0 6.515 0.26722 9.9092 3.5 4.3872 4.1785 6.4442 8.5777 6.4143 13.718-0.042 7.2393-6.4089 17.321-13.178 20.867-2.9473 1.544-9.1346 1.773-12.3 0.45519zm103.2-89.114c-0.3455-5.1848-1.3619-11.567-2.2587-14.184-2.5549-7.453-10.284-12.721-18.688-12.738-1.5125-3e-3 -2.75-0.45558-2.75-1.0056s1.4943-1 3.3207-1 5.7545-1.2375 8.7293-2.75c4.2567-2.1644 5.8854-3.7083 7.6479-7.25 2.512-5.048 4.2163-14.282 4.4297-24 0.1416-6.4514 0.1491-6.4327 0.9977 2.5 1.6875 17.762 3.9013 23.58 10.722 28.176 1.8147 1.2229 5.404 2.5047 7.9762 2.8484 7.4251 0.9922 8.1005 1.7646 2.1767 2.4892-12.995 1.5895-18.495 8.3765-19.683 24.289-0.9174 12.287-1.9103 13.282-2.6204 2.6245zm-154.21-8.6392c-3.8402-3.6197-15.114-14.642-25.052-24.494l-18.07-17.913-38.836 19.717c-21.36 10.844-38.449 19.084-37.977 18.31 2.4859-4.069 21.088-32.456 30.412-46.407 5.8808-8.8 11.961-18.351 13.511-21.223 2.466-4.57 2.6449-5.4457 1.4302-7-2.8533-3.651-41.797-49.864-43.807-51.985-1.1514-1.2145-2.0934-2.3866-2.0934-2.6047 0-0.21811 2.5875 0.4025 5.75 1.3791 5.942 1.835 52.73 14.287 61.977 16.495l5.2274 1.248 2.2148-3.6546c2.7743-4.5778 14.902-23.153 30.687-47 11.117-16.796 12.143-18.047 12.143-14.805 0 1.9475 0.42632 12.453 0.94737 23.346 0.52106 10.893 1.1984 25.845 1.5053 33.227s0.66805 13.518 0.80263 13.635c0.13457 0.11737 8.1197 0.95584 17.745 1.8633 9.625 0.90744 21.1 2.0635 25.5 2.569 4.4 0.50552 12.192 1.225 17.316 1.5989 5.1237 0.37386 8.9487 1.0302 8.5 1.4586-0.4488 0.42838-13.191 7.6172-28.316 15.975s-29.525 16.319-32 17.692-4.9592 2.8676-5.5205 3.3227c-0.66858 0.54206-0.75898 4.903-0.26212 12.645 3.2025 49.903 3.7256 58.708 3.5012 58.933-0.13982 0.13983-3.3962-2.7073-7.2364-6.327zm-480.35-3.7878c-0.32655-9.6729-2.9479-24.492-5.1294-28.999-3.5716-7.3779-10.767-11.459-23.141-13.125l-5.3592-0.7214 7.3648-1.2515c18.316-3.1125 23.656-10.599 24.856-34.848 0.6828-13.793 1.731-12.723 2.5733 2.6287 0.67075 12.225 1.7799 16.687 5.5479 22.32 3.2782 4.9007 11.089 9.0933 18.716 10.046 3.0074 0.37575 5.6749 1.0178 5.9276 1.4267 0.25274 0.40893-2.2255 1.0242-5.5071 1.3672-10.397 1.0867-17.115 5.1456-20.948 12.656-2.4744 4.8481-3.1555 8.5819-3.9998 21.929-0.40259 6.3643-0.80794 9.3215-0.90078 6.5715z"/>
 </g>
</svg>
