<?xml version="1.0" encoding="UTF-8" standalone="no"?>
<!-- Created with Inkscape (http://www.inkscape.org/) -->

<svg
   version="1.1"
   id="svg1"
   width="1089.8806"
   height="786.0127"
   viewBox="0 0 1089.8806 786.0127"
   sodipodi:docname="logo-inkscape.svg"
   inkscape:version="1.3.2 (091e20e, 2023-11-25)"
   xmlns:inkscape="http://www.inkscape.org/namespaces/inkscape"
   xmlns:sodipodi="http://sodipodi.sourceforge.net/DTD/sodipodi-0.dtd"
   xmlns="http://www.w3.org/2000/svg"
   xmlns:svg="http://www.w3.org/2000/svg">
  <defs
     id="defs1" />
  <sodipodi:namedview
     id="namedview1"
     pagecolor="#ffffff"
     bordercolor="#000000"
     borderopacity="0.25"
     inkscape:showpageshadow="2"
     inkscape:pageopacity="0.0"
     inkscape:pagecheckerboard="0"
     inkscape:deskcolor="#d1d1d1"
     inkscape:zoom="0.23046875"
     inkscape:cx="529.35593"
     inkscape:cy="431.72881"
     inkscape:window-width="1680"
     inkscape:window-height="992"
     inkscape:window-x="0"
     inkscape:window-y="25"
     inkscape:window-maximized="0"
     inkscape:current-layer="g1" />
  <g
     inkscape:groupmode="layer"
     inkscape:label="Image"
     id="g1"
     transform="translate(-239.90673,-77.923529)">
    <path
       style="fill:#000000"
       d="m 621,863.75085 c -0.275,-0.26692 -6.35,-0.75207 -13.5,-1.07811 C 561.94922,860.59557 503.43829,847.5234 463.5,830.5011 406.47997,806.1983 368.59565,775.38977 347.29486,736 334.03267,711.47534 324.66234,677.29695 323.85422,650.5 l -0.2111,-7 11.42844,-0.67456 c 6.53031,-0.38546 15.31128,-1.67475 20.48798,-3.00821 l 9.05955,-2.33364 1.24519,14.50821 c 4.33646,50.52545 25.23538,91.72841 62.13572,122.50272 16.90135,14.09546 47.6616,31.67286 71.5,40.85741 20.74306,7.99196 56.90092,17.36974 81.5,21.13755 32.90084,5.03939 82.23211,6.99981 113.5,4.51049 61.59213,-4.90351 122.65803,-21.01462 188,-49.60032 21.41409,-9.3682 46.5462,-22.39459 74,-38.35543 25.97098,-15.09877 72.7606,-48.72485 102.7275,-73.82669 8.8055,-7.3759 15.6574,-12.80476 15.2265,-12.06413 -0.431,0.74063 -3.8617,5.00453 -7.624,9.47534 -16.4656,19.56649 -53.8982,52.04146 -85.33,74.02865 -20.17564,14.11328 -23.67388,16.45152 -34.72842,23.2127 -22.82719,13.96155 -53.7112,30.58 -71.27158,38.35067 -3.3,1.46029 -8.925,3.97245 -12.5,5.58258 -20.78197,9.3599 -56.08824,21.58715 -81.5,28.22506 -46.72638,12.20558 -80.48134,16.84686 -128.5,17.66865 -17.325,0.2965 -31.725,0.32071 -32,0.0538 z m -48.65976,-77.70846 c -16.83825,-4.01208 -19.53153,-22.59329 -5.14912,-35.52431 9.40871,-8.45925 21.88785,-12.47948 38.81126,-12.5033 L 616.50477,738 l 4.35927,-12.25 c 9.52567,-26.7681 11.25476,-32.07123 17.56865,-53.88302 14.32697,-49.49356 25.25401,-77.04528 36.68523,-92.4991 17.38344,-23.50061 37.51909,-35.17272 58.94741,-34.17028 7.24035,0.33871 9.40603,0.87018 14,3.43568 16.07074,8.9747 17.95922,30.53631 4.93731,56.3712 -11.02866,21.88037 -35.10231,47.93148 -52.3872,56.69039 -5.48249,2.77819 -8.87494,2.21358 -10.11163,-1.68288 -0.94202,-2.96802 1.3373,-6.00215 9.25451,-12.31915 29.44918,-23.49703 48.12746,-61.97924 36.68407,-75.57894 -6.60304,-7.84726 -18.42451,-3.16419 -25.88718,10.2552 -7.57284,13.6175 -17.943,41.63711 -34.46808,93.1309 -8.37938,26.11095 -16.64087,43.42846 -28.22914,59.17311 l -3.80748,5.17311 6.58778,0.70549 c 10.31256,1.10438 36.96682,-0.14684 43.80726,-2.05643 16.5196,-4.61165 30.06127,-16.06011 37.31582,-31.54774 3.43867,-7.34117 6.29953,-8.97755 9.71831,-5.55877 3.06515,3.06516 3.9246,7.85042 3.22922,17.9799 -0.91184,13.28279 -6.57743,25.99956 -16.54277,37.13133 -18.699,20.88769 -47.2115,24.32399 -92.51065,11.14932 l -11.44854,-3.32966 -6.85347,5.87901 c -8.16323,7.00253 -20.49785,13.30142 -29.98182,15.31074 -7.48111,1.58499 -10.21017,1.68175 -15.03141,0.53298 z M 591.5,769.09108 c 2.75,-1.58958 6.35,-4.34254 8,-6.11767 l 3,-3.22752 -8.56312,0.50473 c -9.48192,0.5589 -14.39632,2.46888 -16.12726,6.26787 -2.68082,5.88377 5.35094,7.39304 13.69038,2.57259 z m -106.04196,4.78343 c -7.95802,-4.55331 -22.54312,-15.10244 -26.88898,-19.4483 -0.87309,-0.8731 -1.33493,-1.99602 -1.02631,-2.49538 0.30862,-0.49935 -0.0697,-0.66585 -0.84069,-0.36999 -1.6094,0.61758 -12.91204,-12.38121 -19.617,-22.56084 -9.38743,-14.25224 -17.97837,-35.19259 -21.56831,-52.57265 C 412.21566,660.44577 411.58831,642.23806 413.60699,621 l 0.80793,-8.5 0.7469,7 c 0.4108,3.85 1.23161,12.175 1.82403,18.5 3.23181,34.50493 14.62893,67.35963 32.72141,94.32668 7.38463,11.00687 28.38931,33.50014 38.0763,40.77473 10.22337,7.6774 9.91854,7.77874 -2.32552,0.7731 z m 284.67904,-30.18382 c -19.45701,-7.38737 -21.01215,-38.80814 -3.67201,-74.19069 7.58437,-15.4759 14.58351,-25.64547 24.48452,-35.57537 18.42379,-18.47757 38.97682,-22.7385 51.6895,-10.71597 l 3.13908,2.96867 2.86092,-5.33674 c 3.43357,-6.40497 6.62484,-7.84022 19.10756,-8.59343 12.68124,-0.7652 13.65715,1.28225 7.85644,16.48271 -7.06219,18.50608 -18.71085,59.06335 -20.21022,70.36616 -0.48709,3.67191 -0.24035,5.4878 1.00368,7.38643 4.63058,7.06716 18.47762,-2.01276 30.70649,-20.13516 4.77123,-7.07066 5.49297,-9.01273 11.0399,-29.70627 3.26421,-12.17757 8.61956,-32.11475 11.90077,-44.30486 C 917.04259,586.33448 922,564.98482 922,560.84505 922,557.79811 917.94932,553 915.37703,553 c -0.73201,0 -2.06953,-1.12725 -2.97227,-2.50501 -2.09104,-3.19133 -0.76521,-5.01719 4.33844,-5.97464 2.01957,-0.37887 9.71211,-2.69665 17.09454,-5.15062 10.73166,-3.56728 14.54529,-4.40242 19.02267,-4.16575 5.13077,0.27121 5.68289,0.53255 6.58836,3.1185 0.75509,2.15648 0.46788,4.75208 -1.21721,11 -2.39575,8.88295 -16.58433,64.32659 -17.69002,69.126 -0.60818,2.63988 0.17467,2.13262 7.47973,-4.84659 10.59732,-10.12462 16.699,-13.08634 26.97873,-13.09533 6.4026,-0.006 8.19006,0.39908 12.21611,2.76574 9.28564,5.45842 13.88889,15.59969 13.94759,30.7277 0.1618,41.64727 -28.39667,82.93872 -64.71598,93.5702 -6.84523,2.00376 -18.00454,2.24195 -24.23932,0.51738 -11.75077,-3.25031 -20.50601,-13.19847 -21.41918,-24.33758 -0.12399,-1.5125 -0.46479,-2.73357 -0.75733,-2.71349 -0.29254,0.0201 -1.74114,1.93258 -3.21911,4.25 -7.1114,11.15047 -20.2684,23.818 -29.37595,28.28309 -7.22514,3.54222 -16.31883,5.08194 -21.26391,3.60035 -7.50135,-2.24745 -11.4712,-7.04784 -13.63741,-16.49051 l -1.10588,-4.82057 -3.84615,5.58445 c -5.49496,7.97844 -15.00474,16.39093 -22.48691,19.89226 -7.43552,3.4795 -19.09935,4.58007 -24.95949,2.35511 z m 34.62997,-27.43768 c 8.67894,-3.97699 19.10658,-21.69225 25.75408,-43.75301 6.91302,-22.94191 6.92525,-35.16206 0.0381,-38.03971 -6.02599,-2.51782 -13.23335,0.95481 -20.08682,9.67817 -12.05975,15.35015 -22.43368,42.88992 -22.6339,60.08649 -0.1,8.58622 1.06252,11.40086 5.49026,13.29304 3.38442,1.44631 6.20131,1.13479 11.43831,-1.26498 z m 133.2921,-8.794 c 4.72486,-3.27433 11.98388,-12.62029 16.03426,-20.64405 1.58208,-3.13408 4.90226,-11.61248 7.37818,-18.84089 8.24935,-24.08385 9.52099,-37.00321 4.10107,-41.66523 -3.21967,-2.76944 -5.74268,-2.86909 -11.09398,-0.43815 -12.63175,5.73822 -25.40751,31.79618 -30.61154,62.43656 -2.06284,12.14563 -1.94494,18.68916 0.38739,21.49944 1.788,2.1544 9.10332,0.91032 13.80462,-2.34768 z M 522.68306,692.75 c -0.86059,-12.86877 -2.79197,-18.71223 -7.62919,-23.08237 -3.82575,-3.45633 -11.60954,-6.55788 -16.98537,-6.76804 -1.41268,-0.0552 0.2377,-0.71541 3.66751,-1.46709 9.81166,-2.15031 14.15091,-5.10834 17.5042,-11.9325 1.95678,-3.98217 2.63279,-7.84324 3.39128,-19.36933 0.6948,-10.55837 1.36449,-13.25904 1.37558,-5.54734 0.0108,7.51646 2.52521,22.61153 4.35621,26.15229 3.06354,5.92422 7.68322,8.34162 22.13672,11.58375 1.1494,0.25783 0.51145,0.50257 -1.5,0.57545 -5.64569,0.20458 -13.20171,2.926 -16.30121,5.87113 -5.46351,5.19142 -7.53608,12.03479 -7.80181,25.76069 -0.0796,4.11035 -0.47108,7.47336 -0.87001,7.47336 -0.39893,0 -1.00369,-4.1625 -1.34391,-9.25 z M 1169.6089,633 c -0.9155,-11.98351 -2.9454,-22.8291 -5.0141,-26.78888 -1.773,-3.39408 -6.1733,-7.52436 -10.0948,-9.47535 -3.4865,-1.73456 -12.1821,-3.70467 -16.7992,-3.80606 -2.6954,-0.0592 -2.885,-0.20598 -1.2008,-0.92971 1.1,-0.47269 3.3104,-0.89106 4.9121,-0.92971 5.1312,-0.12385 13.5793,-3.37106 17.4988,-6.72605 6.4112,-5.4877 9.9364,-16.85982 10.1812,-32.84424 0.1669,-10.8919 1.6891,-13.68889 1.8082,-3.32236 0.1306,11.36639 1.7808,22.91256 4.022,28.14112 0.9894,2.30815 3.6298,5.85073 5.8675,7.87239 4.2243,3.81637 7.2467,4.98172 18.2102,7.02133 3.8705,0.72005 5.4886,1.33092 4,1.51003 -14.0646,1.69223 -21.507,4.94356 -25.3688,11.08273 -4.1997,6.67633 -5.2146,11.24932 -6.48,29.1981 L 1170.4111,643.5 Z M 307.33041,622.5849 c -42.76369,-8.1542 -67.41375,-37.22393 -67.42368,-79.5125 -0.006,-26.37072 7.6852,-46.74872 23.27887,-61.67643 10.87207,-10.40776 21.34782,-15.10913 35.84762,-16.08791 10.15519,-0.6855 17.39568,1.04682 23.81685,5.69829 8.85525,6.41471 7.93319,11.07452 -2.5718,12.99696 -9.07233,1.66026 -15.43038,5.24518 -21.8145,12.29986 -11.20066,12.37713 -17.3555,29.26583 -18.20562,49.9557 -0.59749,14.54151 0.85897,22.83117 5.87937,33.46327 12.0854,25.59421 47.86093,31.92185 70.01428,12.38347 6.75563,-5.9582 11.832,-14.23369 15.70706,-25.60561 3.00298,-8.81271 3.46625,-11.56301 3.9019,-23.16446 1.20718,-32.14776 -4.3615,-46.96556 -41.05738,-109.25032 C 321.34171,411.40615 316.99399,402.03843 313.31448,388 c -3.43989,-13.1242 -3.62596,-30.05884 -0.45472,-41.38403 5.12504,-18.30264 11.41181,-28.96003 24.15514,-40.94804 20.25228,-19.0519 52.34923,-25.5675 79.85834,-16.21104 18.87435,6.41958 31.20131,21.44543 32.92055,40.12822 2.06259,22.4141 -5.50227,38.63004 -21.50335,46.0943 -6.20993,2.89683 -17.36067,4.11257 -22.41647,2.44401 C 402.70587,377.07785 399,372.77589 399,370.14375 c 0,-0.57622 2.08964,-2.48538 4.64364,-4.24258 11.73951,-8.07699 17.27267,-16.92088 18.09527,-28.92247 0.72894,-10.63495 -1.39938,-16.776 -8.14168,-23.49207 -14.59261,-14.53581 -39.82778,-9.56112 -52.45145,10.33992 -7.07029,11.14621 -9.02774,27.43034 -5.14041,42.76349 3.52578,13.90708 10.06654,26.12624 34.64952,64.73068 27.52138,43.21885 34.5676,62.29533 34.60201,93.67928 0.0172,15.63673 -1.27855,23.69836 -5.69455,35.43058 -12.10703,32.16543 -37.28346,53.86162 -71.04678,61.22571 -9.79175,2.13568 -32.20464,2.64102 -41.18516,0.92861 z m 725.94079,-61.1248 c -5.7117,-1.5383 -11.5427,-4.88779 -14.955,-8.59045 -3.6225,-3.9307 -7.2978,-12.94678 -7.2845,-17.86965 0.02,-7.40903 5.8967,-18 9.9876,-18 2.2796,0 4.9807,3.1784 4.9807,5.86086 0,3.63177 2.6623,8.8718 5.4284,10.6842 1.9299,1.26449 4.0119,1.58316 8.1186,1.2426 13.005,-1.07848 20.2745,-11.47854 28.9668,-41.44104 2.4864,-8.5706 5.7594,-23.40674 5.2715,-23.8947 -0.1575,-0.15743 -2.8112,2.71398 -5.8971,6.38092 -9.0368,10.73818 -21.4718,16.57668 -31.3988,14.74243 C 1028.7241,489.14044 1020,477.44893 1020,468.47715 c 0,-2.49132 -0.5229,-2.04962 -4.8731,4.11602 -10.9173,15.47349 -24.95374,25.4044 -35.90902,25.40604 -11.56978,0.002 -17.18425,-5.79475 -18.00534,-18.58902 l -0.48337,-7.5319 -2.44777,4.30938 c -4.77293,8.4029 -15.95519,20.36477 -22.77208,24.35973 -10.00484,5.86323 -23.67632,6.70729 -29.48416,1.82032 -4.30268,-3.62047 -5.38208,-8.12759 -4.73974,-19.79108 0.70906,-12.87485 3.77932,-24.4412 13.10217,-49.35881 4.05755,-10.84481 7.31775,-19.76785 7.24489,-19.82899 -0.0729,-0.0611 -3.33473,-0.39618 -7.2486,-0.74454 l -7.11612,-0.63338 -1.70704,7.02337 c -5.96487,24.54174 -26.73687,70.3137 -33.56867,73.96996 -3.18674,1.70549 -5.96552,1.14808 -7.14132,-1.43251 -0.92819,-2.03716 -0.61227,-3.44645 1.96148,-8.75 1.68733,-3.47696 3.75211,-7.44674 4.58841,-8.82174 2.96061,-4.86768 10.35675,-21.54948 11.08414,-25 0.40581,-1.925 1.3637,-4.21149 2.12866,-5.08108 1.40366,-1.59569 4.06729,-8.57207 9.87053,-25.85226 l 3.16802,-9.43334 -3.26493,-2.86664 c -4.29936,-3.7749 -5.79804,-8.56033 -5.01803,-16.0231 1.50145,-14.36511 13.08261,-24.96113 23.08619,-21.1224 4.10187,1.57404 5.7431,10.64721 3.36296,18.5914 -0.97699,3.26091 -0.93366,4.11119 0.25,4.90565 2.19828,1.47545 10.42778,0.17693 21.10652,-3.33037 10.89092,-3.57698 13.95444,-3.20174 15.91874,1.94985 1.87055,4.90574 0.69907,9.41396 -11.0179,42.40027 C 932.11878,461.1688 930.4884,476 937.36374,476 c 3.26348,0 10.90189,-5.34248 15.47432,-10.82309 9.22897,-11.06206 12.89746,-18.2246 17.05234,-33.29381 6.07877,-22.04689 10.84242,-41.79585 11.55199,-47.89171 0.35266,-3.02974 0.97418,-6.04737 1.38114,-6.70586 1.0215,-1.65282 10.83716,-4.08076 19.77027,-4.89026 6.3601,-0.57634 7.7284,-0.41367 9.4233,1.12023 1.0906,0.98696 1.9769,2.51223 1.9696,3.38949 -0.01,0.87725 -4.0896,17.79501 -9.0718,37.59501 -11.45451,45.52144 -12.52899,56.5 -5.52975,56.5 3.49355,0 10.10625,-5.30357 15.14215,-12.1443 4.8468,-6.58387 5.041,-7.12721 5.9778,-16.72759 0.8661,-8.87525 4.6759,-23.32278 9.0526,-34.32906 11.0325,-27.74384 31.9401,-46.18452 52.4423,-46.25471 7.535,-0.0258 12.2342,2.19254 14.0789,6.64623 0.6401,1.54519 1.4466,2.80443 1.7924,2.79831 0.3458,-0.006 1.5287,-2.33071 2.6287,-5.16576 1.1,-2.83506 3.1362,-5.99229 4.5249,-7.01608 3.5313,-2.60335 18.4634,-5.61732 20.7453,-4.18733 2.8279,1.7721 2.6297,8.33747 -0.5919,19.61076 -4.2486,14.86729 -8.4761,34.68375 -13.7108,64.26953 -2.5301,14.3 -5.7118,30.725 -7.0704,36.5 -3.9129,16.63266 -12.2009,42.74075 -16.4628,51.85923 -9.1222,19.51753 -22.2934,31.74034 -37.7335,35.01639 -6.7409,1.43028 -10.4108,1.34021 -16.9296,-0.41552 z m 33.8402,-101.34858 c 11.2906,-12.11866 22.8559,-46.07424 22.8582,-67.11152 0,-9.93525 -1.2454,-13.07404 -5.699,-14.35132 -9.3395,-2.67855 -20.602,10.86276 -26.2676,31.58258 -5.8549,21.41207 -8.5309,44.52262 -5.958,51.45364 2.4804,6.68154 7.9032,6.11524 15.0664,-1.57338 z M 462.37148,554.9127 c -3.73524,-1.08281 -8.59474,-5.82384 -11.07512,-10.80512 -1.43886,-2.88962 -1.78658,-5.99576 -1.74721,-15.60758 0.0534,-13.02789 -0.55109,-10.1057 12.61788,-61 3.27321,-12.65 6.17999,-23.7875 6.45952,-24.75 0.45091,-1.55265 -0.31698,-1.75166 -6.80916,-1.76474 -9.23976,-0.0186 -12.4346,-1.49317 -12.00435,-5.5405 0.51455,-4.84037 2.41328,-5.85213 13.24645,-7.05854 5.50078,-0.61258 10.18029,-1.29267 10.39893,-1.51131 0.21864,-0.21863 2.66768,-10.00655 5.44231,-21.75093 2.77464,-11.74438 5.56215,-21.97679 6.19448,-22.7387 0.63232,-0.7619 1.98778,-1.38528 3.01212,-1.38528 1.02435,0 5.80675,-1.14429 10.62756,-2.54287 9.10822,-2.64242 12.61018,-2.60622 13.66448,0.14122 0.34098,0.88859 -1.26296,10.7889 -3.56433,22.00068 -2.30136,11.21177 -3.8766,20.69275 -3.50052,21.06882 0.37608,0.37608 7.20571,-0.39072 15.17695,-1.704 17.76142,-2.92622 18.06448,-2.80092 16.37825,6.77192 -0.59922,3.40182 -1.60704,6.5973 -2.2396,7.10105 -0.63257,0.50376 -8.33476,1.4437 -17.116,2.08876 -8.78123,0.64506 -16.08664,1.2936 -16.23424,1.44121 -0.63254,0.63254 -17.29269,68.69734 -18.1752,74.25453 C 481.34366,522.83641 484.46126,529 491.915,529 c 6.73045,0 17.00878,-8.31885 27.49933,-22.25681 4.71082,-6.25889 6.07874,-9.04588 8.04562,-16.3921 3.2093,-11.9866 5.72583,-18.10099 12.19033,-29.61884 16.16644,-28.80387 40.47227,-47.28496 61.86297,-47.03793 8.60493,0.0994 13.37566,1.98241 16.97362,6.69957 1.51278,1.98336 3.16309,3.60611 3.66736,3.60611 0.50426,0 1.7556,-1.95675 2.78075,-4.34832 1.02515,-2.39158 3.02878,-5.26461 4.45251,-6.38452 3.02749,-2.38143 13.25512,-4.5138 22.36301,-4.6625 5.30877,-0.0867 6.65899,0.23562 7.85863,1.87588 1.87388,2.56215 1.31595,4.94507 -4.66531,19.92569 -8.88948,22.2645 -18.97234,58.8631 -19.26383,69.9235 -0.15268,5.79365 0.12341,7.05461 1.82001,8.31209 2.70696,2.00635 7.21502,1.00055 10.79987,-2.40958 C 652.44639,502.28781 672,471.29742 672,468.67004 c 0,-0.32593 2.95043,-6.7727 6.55651,-14.32615 3.60608,-7.55345 7.45722,-17.01664 8.55808,-21.02931 l 2.00156,-7.29575 -2.5027,-3.2812 c -8.88076,-11.64327 -3.30653,-32.22679 10.60468,-39.15904 7.18447,-3.58017 12.08022,-3.43409 15.99148,0.47717 2.89933,2.89933 3.01591,3.32168 2.27723,8.25 -0.4282,2.85683 -0.8254,7.1976 -0.88269,9.64615 -0.10054,4.29746 0.0153,4.47658 3.33847,5.16309 1.89344,0.39116 9.20139,0.0206 16.23988,-0.82354 11.84797,-1.42089 12.98678,-1.41056 15.35202,0.1392 7.2639,4.75949 5.40799,16.89489 -6.5103,42.56934 -6.8207,14.69318 -10.43671,25.15066 -12.72667,36.80544 -1.48244,7.54485 -1.50037,8.73779 -0.16649,11.0751 4.45151,7.80022 20.11715,-2.97706 33.75124,-23.21937 6.50022,-9.65078 7.68497,-12.14598 9.09791,-19.16117 0.66466,-3.3 4.96255,-21.3 9.55086,-40 19.69971,-80.28759 19.73362,-80.44342 18.36393,-84.369 -0.5132,-1.47083 -2.56653,-3.51378 -4.6565,-4.63294 -2.76336,-1.47976 -3.7385,-2.64403 -3.7385,-4.46358 0,-2.12992 0.94327,-2.81698 7,-5.09868 3.85,-1.45038 11.68511,-4.95427 17.41135,-7.78643 6.25157,-3.09198 11.74528,-5.14937 13.75,-5.14937 3.78104,0 7.33865,2.90775 7.33865,5.99813 0,1.09898 -2.64864,12.23648 -5.88586,24.75 -3.23722,12.51353 -8.20871,31.75187 -11.04775,42.75187 -2.83904,11 -5.42936,20.9 -5.75628,22 -0.43153,1.452 0.60905,0.89712 3.79775,-2.02515 10.77438,-9.8741 22.52162,-13.35957 34.69515,-10.29423 7.10222,1.78835 14.18997,9.32571 17.25491,18.34944 4.21107,12.39817 2.95405,33.39883 -3.09428,51.69524 -5.61279,16.97889 -18.26314,37.58258 -28.74487,46.81691 -6.82641,6.01402 -19.54149,13.56934 -27.03031,16.06146 -9.29838,3.0943 -21.94786,2.35468 -30.01055,-1.75472 -8.4091,-4.28597 -13.98242,-13.50708 -14.51036,-24.00752 -0.0922,-1.83286 -0.39255,-3.30675 -0.66755,-3.27532 -0.275,0.0314 -2.75,3.20456 -5.5,7.05141 -7.34545,10.27521 -22.07645,24.06039 -29.69289,27.78642 -22.74002,11.12463 -38.65596,1.52216 -36.30546,-21.90394 1.46985,-14.64913 6.49976,-30.36197 18.32656,-57.25 l 6.04799,-13.75 -7.4381,-0.17857 c -4.09096,-0.0982 -8.34773,-0.21072 -9.45949,-0.25 -1.66995,-0.059 -2.60233,1.58027 -5.36273,9.42857 -9.9557,28.30583 -29.34735,63.52688 -43.73024,79.42725 -11.39801,12.60056 -24.3141,19.21614 -35.8833,18.3793 -9.1595,-0.66254 -15.59822,-6.93514 -17.76474,-17.30643 l -0.7376,-3.53094 -4.5,5.67663 c -5.25108,6.62409 -14.96731,14.93 -21.8422,18.67179 -21.36711,11.62943 -43.57832,2.49059 -47.69316,-19.62344 l -0.70817,-3.80584 -3.54533,5.30584 c -8.41386,12.59196 -26.01507,27.18529 -36.56857,30.31935 -5.46772,1.62373 -17.31441,1.83608 -22.27109,0.39919 z m 116.25677,-36.08385 c 4.80768,-2.40107 10.81375,-8.99923 15.93853,-17.50976 9.91175,-16.4601 18.02312,-50.94159 14.49686,-61.62627 -2.28499,-6.92359 -8.85997,-9.4769 -16.34576,-6.34767 -7.52485,3.14556 -21.38391,22.55919 -27.27195,38.20228 -6.06894,16.12367 -8.37516,35.82117 -4.96591,42.41393 3.62825,7.01626 10.27579,8.79918 18.14823,4.86749 z m 234.98689,-21.07846 c 6.31396,-4.92363 13.05845,-14.86302 16.79468,-24.75039 5.79036,-15.32332 9.79273,-35.10987 9.91157,-49 0.1056,-12.34262 -1.61517,-15.95184 -7.62105,-15.98469 -11.01855,-0.0603 -23.60026,18.83513 -30.13545,45.25787 -5.77531,23.35045 -6.50988,39.81517 -1.99872,44.79993 2.50299,2.76578 9.30404,2.59757 13.04897,-0.32272 z M 437.09675,475.11404 c -1.31489,-3.08772 -5.64749,-11.99302 -9.62799,-19.78955 l -7.23728,-14.17552 5.81562,-9.56115 c 7.74875,-12.7393 25.08036,-37.69969 35.45586,-51.0623 C 497.88732,333.66609 540.66589,294.18479 589.1906,262.67974 601.24567,254.85288 623.8084,241 624.50122,241 c 0.22592,0 2.79307,-1.41728 5.70477,-3.14952 16.26686,-9.67751 49.83018,-25.08414 74.77804,-34.32548 38.42902,-14.23512 67.84853,-21.56015 106.54969,-26.52933 13.46206,-1.72851 30.73909,-2.63087 24.96628,-1.30396 -1.1,0.25284 -9.2,2.42245 -18,4.82135 -70.20654,19.13846 -151.79906,59.83791 -209.91422,104.70804 -32.03019,24.73019 -62.57283,53.87893 -83.21754,79.4197 -5.57337,6.89514 -5.85014,7.08955 -8.04522,5.65128 -1.82422,-1.19528 -4.89554,-1.39867 -15.54815,-1.02965 -14.72419,0.51007 -20.0694,1.73125 -22.2685,5.08751 -1.96449,2.99818 -9.12954,27.41546 -10.65465,36.30922 l -1.213,7.07362 -8.06936,1.01835 c -4.43815,0.5601 -9.28846,1.50209 -10.77848,2.09332 -6.05278,2.40171 -8.80601,14.84748 -5.46965,24.72517 0.69539,2.0588 6.41532,5.43038 9.2127,5.43038 0.80634,0 1.46607,0.20271 1.46607,0.45046 0,0.24775 -3.26532,6.93657 -7.25627,14.86404 l -7.25627,14.41358 z M 433,438 c 0,-0.55 -0.47656,-1 -1.05902,-1 -0.58246,0 -0.7809,0.45 -0.44098,1 0.33992,0.55 0.81648,1 1.05902,1 0.24254,0 0.44098,-0.45 0.44098,-1 z m 691.2,40.8 c -1.5815,-1.58147 -1.5136,-3.91117 0.2954,-10.14609 0.8224,-2.83465 4.8923,-20.22891 9.0442,-38.65391 20.3623,-90.36285 27.4434,-122.76535 27.4515,-125.61514 0.012,-4.0316 -3.113,-7.93996 -7.5067,-9.39002 -2.6434,-0.87239 -3.4844,-1.70819 -3.4844,-3.46284 0,-2.05147 0.9325,-2.56303 8.25,-4.52585 4.5375,-1.21712 12.1778,-3.74142 16.9785,-5.60955 10.417,-4.05369 15.9481,-4.41021 18.2148,-1.17409 1.9526,2.78772 1.96,5.91429 0.034,14.22014 -5.1239,22.09385 -17.5885,82.72301 -17.2288,83.80236 0.1665,0.49944 1.8457,-1.26387 3.7315,-3.91847 8.4637,-11.9138 22.1112,-23.68327 31.1677,-26.87857 2.2572,-0.79639 6.3424,-1.44797 9.0782,-1.44797 4.2973,0 5.4248,0.45054 8.2847,3.3104 1.8808,1.88077 3.833,5.2277 4.5206,7.75 1.6646,6.10648 0.5845,19.93835 -2.5722,32.9396 -7.7906,32.08722 -9.7723,41.93234 -9.8628,49 l -0.096,7.5 2.8094,0.32215 c 2.3414,0.2685 3.9348,-0.82347 9.5654,-6.55556 6.6879,-6.80836 15.5034,-20.03948 18.4999,-27.76659 0.8532,-2.2 2.9044,-9.85 4.5584,-17 1.6539,-7.15 4.7573,-20.35703 6.8964,-29.34894 l 3.8893,-16.34895 -8.5722,0.34895 -8.5723,0.34894 -0.9802,-2.75 c -0.6323,-1.77397 -0.6384,-3.72603 -0.017,-5.5 0.9129,-2.60658 1.451,-2.81056 10.3185,-3.91117 5.1455,-0.63864 9.945,-1.76364 10.6656,-2.5 1.4885,-1.52101 7.4236,-32.56977 7.4683,-39.06976 l 0.029,-4.26907 13.1313,-7.44677 c 13.5925,-7.70835 17.7737,-9.15817 20.3192,-7.04563 2.0682,1.71649 1.89,8.45848 -0.4265,16.13706 -2.5323,8.39351 -7.4982,34.77318 -6.6969,35.57451 0.3459,0.34589 6.0815,-0.38353 12.7458,-1.62094 8.4065,-1.56092 12.436,-1.93065 13.1592,-1.20743 0.7232,0.72321 0.6591,2.75524 -0.2094,6.63606 -1.5019,6.71118 -1.5333,6.7278 -17.0814,9.02772 -6.325,0.93561 -12.0036,2.20609 -12.6191,2.82327 -1.686,1.69063 -16.766,64.53906 -17.9953,74.99851 -1.7736,15.09067 4.554,20.36735 16.327,13.61539 5.0454,-2.89359 13.8192,-12.25179 16.6881,-17.79973 5.1855,-10.02769 12.3102,-6.10878 7.7277,4.25063 -5.612,12.68673 -23.6328,33.42705 -33.7033,38.7893 -16.069,8.55632 -30.0939,6.40891 -35.7945,-5.48062 -1.3849,-2.88823 -2.8203,-7.39492 -3.1898,-10.01487 l -0.6719,-4.76354 -2.9497,4.6511 c -10.3838,16.37365 -25.6078,27.14927 -39.7251,28.11765 -5.7181,0.39224 -7.0475,0.14053 -10.0071,-1.89467 -5.7478,-3.95256 -7.4925,-8.68894 -7.4764,-20.29671 0.015,-11.14574 2.1947,-23.26742 7.9197,-44.05029 6.998,-25.40457 7.2769,-28.53264 2.6515,-29.74222 -5.5467,-1.45048 -14.3628,7.42476 -21.9582,22.10528 -7.178,13.87387 -10.7584,25.58505 -19.6459,64.25951 -1.469,6.39242 -3.2302,12.38752 -3.9138,13.32246 -0.8572,1.17222 -4.1797,2.14081 -10.7035,3.12035 -11.5933,1.74073 -17.1844,1.81065 -18.7604,0.23462 z M 529,409.31341 c 0,-1.40353 24.93292,-34.39364 35.38016,-46.81341 18.09666,-21.51348 50.38363,-54.80462 52.40082,-54.03055 0.72759,0.2792 1.09404,0.13734 0.81432,-0.31525 -0.75324,-1.21877 6.15195,-7.52712 24.4047,-22.29533 17.35458,-14.04151 34.72067,-26.01889 57,-39.31284 36.34216,-21.68517 90.59834,-44.25564 127.55034,-53.06073 5.52768,-1.31716 10.92768,-2.70642 12,-3.08725 1.24502,-0.44216 1.58825,-0.34954 0.94966,0.25627 -0.55,0.52177 -4.825,2.47364 -9.5,4.33749 -15.55819,6.20282 -48.30565,22.34818 -66.5008,32.78665 -34.74549,19.93332 -58.80702,36.51688 -95.45018,65.78566 -13.38461,10.69098 -41.42322,36.92501 -54.05828,50.57907 -20.72742,22.39904 -40.50652,46.10345 -48.31446,57.90286 l -3.08597,4.66354 -13.04515,0.65907 c -7.17484,0.36249 -14.73266,1.05544 -16.79516,1.5399 -2.0625,0.48445 -3.75,0.66663 -3.75,0.40485 z m 467.5,-52.2729 c -2.8047,-1.16775 -7.17315,-6.01219 -8.43638,-9.35561 -1.9968,-5.28495 -1.27881,-11.94622 1.96979,-18.27518 4.35721,-8.48875 7.82367,-10.90972 15.62109,-10.90972 5.7584,0 6.515,0.26722 9.9092,3.5 4.3872,4.17853 6.4442,8.57766 6.4143,13.71788 -0.042,7.23927 -6.4089,17.32099 -13.1783,20.86744 -2.9473,1.54402 -9.1346,1.77301 -12.2997,0.45519 z M 1099.6968,267.927 c -0.3455,-5.18485 -1.3619,-11.56743 -2.2587,-14.18351 -2.5549,-7.45305 -10.2835,-12.72087 -18.6881,-12.73791 -1.5125,-0.003 -2.75,-0.45558 -2.75,-1.00558 0,-0.55 1.4943,-1 3.3207,-1 1.8264,0 5.7545,-1.2375 8.7293,-2.75 4.2567,-2.16436 5.8854,-3.70833 7.6479,-7.25 2.512,-5.04805 4.2163,-14.28206 4.4297,-24 0.1416,-6.45141 0.1491,-6.43272 0.9977,2.5 1.6875,17.76192 3.9013,23.57959 10.7218,28.17592 1.8147,1.22293 5.404,2.50473 7.9762,2.84844 7.4251,0.9922 8.1005,1.7646 2.1767,2.48919 -12.9947,1.5895 -18.4947,8.37654 -19.6828,24.28893 -0.9174,12.28724 -1.9103,13.28175 -2.6204,2.62452 z m -154.21464,-8.63922 c -3.84019,-3.61968 -15.11358,-14.64216 -25.05199,-24.4944 l -18.06983,-17.91316 -38.83638,19.71715 c -21.36001,10.84443 -38.44948,19.08388 -37.97661,18.30989 2.48592,-4.06897 21.08845,-32.4555 30.41202,-46.40726 5.8808,-8.8 11.96074,-18.35055 13.51097,-21.22345 2.46603,-4.57003 2.64494,-5.44569 1.43022,-7 -2.85331,-3.65102 -41.79654,-49.86385 -43.80717,-51.98474 C 825.94203,127.07731 825,125.90518 825,125.68708 c 0,-0.21811 2.5875,0.4025 5.75,1.37912 5.94199,1.83495 52.72955,14.28722 61.97743,16.49496 l 5.22743,1.24795 2.21481,-3.65456 c 2.77431,-4.57777 14.90237,-23.15311 30.68708,-47.000351 C 941.9742,77.358154 943,76.107522 943,79.349386 c 0,1.947543 0.42632,12.453154 0.94737,23.345804 0.52106,10.89264 1.19845,25.8447 1.50532,33.22679 0.30687,7.38209 0.66805,13.51801 0.80263,13.63538 0.13457,0.11737 8.11968,0.95584 17.74468,1.86327 9.625,0.90744 21.1,2.06349 25.5,2.56902 4.4,0.50552 12.1921,1.22502 17.3159,1.59888 5.1237,0.37386 8.9487,1.03024 8.5,1.45863 -0.4488,0.42838 -13.1909,7.6172 -28.3159,15.97515 -15.125,8.35795 -29.525,16.31915 -32,17.69156 -2.475,1.37241 -4.95923,2.86763 -5.52052,3.32271 -0.66858,0.54206 -0.75898,4.90303 -0.26212,12.64541 3.2025,49.90343 3.7256,58.70838 3.50119,58.93279 -0.13982,0.13983 -3.3962,-2.70732 -7.23639,-6.327 z M 465.12991,255.5 c -0.32655,-9.67288 -2.94787,-24.4925 -5.12937,-28.99888 -3.57158,-7.3779 -10.76738,-11.45901 -23.14139,-13.12467 l -5.35915,-0.7214 7.36479,-1.25151 c 18.31601,-3.11248 23.65573,-10.59866 24.85612,-34.84774 0.6828,-13.79338 1.73099,-12.72264 2.5733,2.62868 0.67075,12.22455 1.77989,16.68674 5.54792,22.31979 3.27817,4.90073 11.08898,9.09333 18.71622,10.04629 3.00744,0.37575 5.67486,1.01777 5.9276,1.42671 0.25274,0.40893 -2.22546,1.02415 -5.50711,1.36715 -10.39666,1.08667 -17.11536,5.14564 -20.94839,12.65558 -2.47444,4.8481 -3.15549,8.58194 -3.99976,21.92852 -0.40259,6.36431 -0.80794,9.32148 -0.90078,6.57148 z"
       id="path1" />
  </g>
</svg>
